<svg width="134" height="127" viewBox="0 0 134 127" fill="none" xmlns="http://www.w3.org/2000/svg">
<path d="M66.9694 23.0968C80.8652 -11.5401 136.019 -5.52939 133.331 38.9331C130.724 82.0234 92.3421 101.098 66.9694 126.239C41.5967 101.098 -0.225288 79.6905 0.607933 38.9331C1.52178 -5.61173 51.0846 -11.5401 66.9694 23.0968Z" fill="#FF00FF"/>
<path d="M66.9699 126.815C67.1043 126.815 67.2656 126.76 67.3731 126.651C73.4206 120.667 80.0594 115.151 87.1014 109.305C109.114 90.9708 131.907 72.033 133.896 38.988C134.514 28.9153 132.149 19.9954 127.096 13.2437C122.526 7.15066 116.022 2.97887 108.281 1.16743C100.218 -0.726343 91.6438 0.206821 84.1717 3.7748C76.404 7.48001 70.464 13.6554 66.943 21.697C63.0457 13.7652 57.1595 7.64469 49.8756 3.96692C42.8067 0.371497 34.7702 -0.698897 27.1907 0.920418C14.3699 3.69246 0.500923 15.1374 0.0171283 38.9331C-0.278526 52.9306 4.4251 65.9126 14.3968 78.6201C23.1859 89.818 34.9046 99.5065 46.2202 108.866C53.531 114.904 60.4655 120.64 66.5399 126.678C66.6742 126.76 66.8355 126.815 66.9699 126.815ZM100.11 1.387C102.825 1.387 105.486 1.68891 108.039 2.29272C120.887 5.28433 134.111 16.4823 132.767 38.9057C130.778 71.4567 108.201 90.2297 86.3757 108.399C79.7906 113.888 72.9637 119.542 66.9968 125.416C60.9761 119.487 54.176 113.888 46.9996 107.932C24.1803 89.077 0.608437 69.5903 1.22663 38.9331C1.71044 15.8236 15.0956 4.73541 27.4863 2.0457C40.7371 -0.808681 57.9389 4.65308 66.4861 23.3164C66.5936 23.5359 66.7818 23.6732 67.0237 23.6457C67.2656 23.6457 67.4537 23.5085 67.5343 23.2889C73.5819 8.22106 87.3164 1.387 100.11 1.387Z" fill="black"/>
<path d="M17.9979 24.8807C17.5679 25.7315 17.0841 26.6647 16.2508 27.1038C15.7402 27.3783 15.122 27.4057 14.5307 27.3783C12.4611 27.296 10.2033 26.1981 9.66577 24.1671C9.04758 21.944 10.6603 19.7757 12.1654 18.0466C15.0145 14.7531 22.6478 5.14702 27.7008 8.66011C31.6519 11.4047 26.6526 13.9023 24.6905 15.8235C22.0027 18.4309 19.7181 21.5048 17.9979 24.8807Z" fill="white"/>
<path d="M12.3253 29.9307C13.1048 30.1503 13.938 30.4796 14.3949 31.1932C14.6637 31.6324 14.7712 32.1539 14.8519 32.6479C14.9594 33.5262 15.0131 34.4319 14.9594 35.3101C14.9325 35.8865 14.8787 36.4629 14.61 36.9843C14.1262 37.9724 13.0242 38.4664 12.1103 39.0702C11.7878 39.2898 11.4384 39.5368 11.089 39.6741C10.1214 40.0309 8.99249 39.5368 8.34742 38.7134C7.67548 37.9175 7.37982 36.8746 7.1648 35.8316C7.00353 35.0906 6.89601 34.3495 6.81538 33.581C6.73475 32.7028 6.681 31.7696 7.05729 30.9737C8.05177 28.778 10.5245 29.4092 12.3253 29.9307Z" fill="white"/>
<path d="M69.1492 51.2377C67.2969 43.2275 72.1545 35.2006 79.9989 33.3092C87.8433 31.4177 95.704 36.378 97.5563 44.3882C99.4086 52.3984 94.551 60.4253 86.7066 62.3167C78.8622 64.2082 71.0015 59.2479 69.1492 51.2377Z" fill="white"/>
<path d="M83.3413 63.3053C91.7004 63.3053 98.5273 56.3614 98.5273 47.7983C98.5273 39.2351 91.7272 32.2913 83.3413 32.2913C74.9555 32.2913 68.1554 39.2351 68.1554 47.7983C68.1554 56.3614 74.9823 63.3053 83.3413 63.3053ZM83.3413 33.4989C91.0822 33.4989 97.3716 39.9213 97.3716 47.8257C97.3716 55.7302 91.0822 62.1525 83.3413 62.1525C75.6005 62.1525 69.3111 55.7302 69.3111 47.8257C69.3111 39.9213 75.6005 33.4989 83.3413 33.4989Z" fill="black"/>
<path d="M75.4527 49.7178C74.4225 45.2627 77.1242 40.7984 81.487 39.7465C85.8498 38.6945 90.2217 41.4533 91.2519 45.9083C92.2821 50.3633 89.5804 54.8276 85.2176 55.8796C80.8548 56.9316 76.4829 54.1728 75.4527 49.7178Z" fill="black"/>
<path d="M36.0014 50.1846C34.7102 42.06 40.1134 34.4048 48.0698 33.0862C56.0262 31.7677 63.523 37.285 64.8143 45.4097C66.1056 53.5343 60.7024 61.1895 52.7459 62.5081C44.7895 63.8267 37.2927 58.3093 36.0014 50.1846Z" fill="white"/>
<path d="M50.3882 63.3054C58.7472 63.3054 65.5742 56.3615 65.5742 47.7984C65.5742 39.2352 58.7741 32.2914 50.3882 32.2914C42.0023 32.2914 35.2022 39.2352 35.2022 47.7984C35.2022 56.3615 42.0292 63.3054 50.3882 63.3054ZM50.3882 33.499C58.129 33.499 64.4185 39.9214 64.4185 47.8258C64.4185 55.7303 58.129 62.1526 50.3882 62.1526C42.6474 62.1526 36.358 55.7303 36.358 47.8258C36.358 39.9214 42.6743 33.499 50.3882 33.499Z" fill="black"/>
<path d="M46.7409 56.5489C42.5991 54.797 40.6323 49.9483 42.3479 45.7189C44.0635 41.4896 48.8119 39.4812 52.9537 41.2331C57.0955 42.985 59.0623 47.8337 57.3467 52.0631C55.6311 56.2924 50.8827 58.3008 46.7409 56.5489Z" fill="black"/>
<path d="M94.897 25.8964C95.0045 25.8964 95.1389 25.869 95.2464 25.7867C95.5152 25.5945 95.5689 25.2377 95.3808 24.9633C92.908 21.4502 88.9032 19.0898 84.6834 18.7056C80.4636 18.2939 76.1094 19.8583 73.0453 22.8499C72.8034 23.0695 72.8034 23.4537 73.0184 23.6733C73.2334 23.9203 73.6097 23.9203 73.8248 23.7008C76.6469 20.9287 80.6517 19.5015 84.549 19.8583C88.4463 20.2151 92.1286 22.3834 94.4132 25.622C94.5207 25.8141 94.7089 25.8964 94.897 25.8964Z" fill="black"/>
<path d="M33.2128 31.0288C33.4816 31.0288 33.7235 30.8366 33.7772 30.5347C34.5567 26.061 37.9702 22.2186 42.2706 20.9835C46.5711 19.7484 51.436 21.2305 54.3925 24.6613C54.6076 24.9083 54.957 24.9357 55.1989 24.7162C55.4408 24.4966 55.4677 24.1398 55.2526 23.8928C52.0273 20.1327 46.6786 18.5134 41.9481 19.8582C37.2176 21.2031 33.4816 25.4023 32.6215 30.3426C32.5677 30.672 32.7827 30.9739 33.0784 31.0288C33.159 31.0288 33.1859 31.0288 33.2128 31.0288Z" fill="black"/>
<path d="M76.2702 65.5284C78.1517 59.655 83.5541 55.3734 89.9242 55.3734C96.3211 55.3734 101.724 59.6275 103.578 65.5284H76.2702Z" fill="#FF00FF"/>
<path d="M76.271 66.1048C76.5129 66.1048 76.7548 65.9401 76.8086 65.6931C78.6632 59.8745 83.9312 55.9497 89.925 55.9497C95.9187 55.9497 101.187 59.8745 103.041 65.6931C103.149 65.995 103.471 66.1596 103.767 66.0773C104.063 65.9675 104.224 65.6382 104.143 65.3363C102.128 59.0237 96.4294 54.797 89.925 54.797C83.4205 54.797 77.7224 59.0237 75.7066 65.3363C75.5991 65.6382 75.7872 65.9675 76.0829 66.0773C76.1635 66.1048 76.2173 66.1048 76.271 66.1048Z" fill="black"/>
<path d="M32.6766 65.5285C34.6387 59.7923 39.9605 55.6754 46.2231 55.6754C52.5125 55.6754 57.8343 59.7923 59.7695 65.5285H32.6766Z" fill="#FF00FF"/>
<path d="M32.676 66.1047C32.9179 66.1047 33.1329 65.94 33.2135 65.7205C35.1487 60.0666 40.363 56.2516 46.2224 56.2516C52.0818 56.2516 57.323 60.0666 59.2313 65.7205C59.3388 66.0224 59.6614 66.187 59.957 66.0773C60.2527 65.9675 60.4139 65.6381 60.3064 65.3362C58.21 59.1883 52.5387 55.0714 46.1955 55.0714C39.8524 55.0714 34.1811 59.1883 32.0847 65.3362C31.9772 65.6381 32.1384 65.9675 32.4341 66.0773C32.5685 66.1047 32.6222 66.1047 32.676 66.1047Z" fill="black"/>
<path d="M74.7917 40.6073L82.1562 47.2492H73.4747L74.7917 40.6073Z" fill="white"/>
<path d="M42.405 40.6073L49.7695 47.2492H41.088L42.405 40.6073Z" fill="white"/>
<path d="M48.047 83.121C50.0091 84.6305 52.4281 85.6734 54.8202 86.4419C62.2654 88.8297 70.275 89.3238 77.8277 87.3477C81.1337 86.4694 84.4128 85.0971 87.0199 82.9837C90.4872 80.1843 92.6374 76.0948 90.6484 73.46C89.3583 71.7583 86.993 71.1271 84.6815 71.4015C81.6443 71.7583 79.1985 73.7619 76.5107 74.8323C72.5327 76.4241 68.0979 77.1926 63.8781 76.3967C58.5563 75.3812 49.7403 66.7906 44.6604 73.46C42.8058 75.9027 44.2035 79.8549 47.4019 82.6269C47.617 82.7916 47.832 82.9563 48.047 83.121Z" fill="white"/>
<path d="M68.0982 89.1592C71.4848 89.1592 74.7908 88.7475 77.9892 87.8967C81.779 86.9086 84.9506 85.3991 87.3965 83.423C90.9713 80.5412 93.3903 76.0675 91.1325 73.0759C89.8155 71.3193 87.3696 70.4685 84.6281 70.7978C82.5316 71.0448 80.7577 72.0055 79.0106 72.9386C78.0968 73.4327 77.2098 73.8992 76.3228 74.256C72.0224 75.9851 67.7757 76.5066 64.0128 75.793C62.4807 75.4911 60.5993 74.5305 58.5834 73.4875C53.9067 71.0449 48.0473 68.0258 44.2038 73.0759C42.2417 75.6558 43.4512 79.9648 47.0528 83.0662C47.2678 83.2583 47.4829 83.423 47.6979 83.5877C49.4449 84.9325 51.7296 86.0578 54.6592 86.991C59.121 88.4182 63.6633 89.1592 68.0982 89.1592ZM85.7032 71.9231C87.6115 71.9231 89.2779 72.6093 90.1918 73.8169C91.9926 76.1773 89.7886 79.9923 86.6708 82.5173C84.3593 84.3836 81.3221 85.8383 77.6936 86.7714C70.5172 88.6652 62.6689 88.3358 54.9818 85.8931C52.1865 84.9874 50.0363 83.9445 48.3698 82.682C48.1548 82.5173 47.9667 82.3526 47.7785 82.1879C44.6607 79.4982 43.5318 75.9028 45.1176 73.8443C48.3698 69.5628 53.2885 72.1152 58.0459 74.5854C60.1155 75.6558 62.0775 76.6713 63.7709 77.0006C67.7488 77.7691 72.2105 77.1928 76.726 75.4088C77.6936 75.0245 78.6343 74.5031 79.5482 74.0365C81.1877 73.1582 82.881 72.2525 84.7625 72.0329C85.085 71.9231 85.4075 71.9231 85.7032 71.9231Z" fill="black"/>
<path d="M88.4877 81.9672C88.5674 81.9672 88.6206 81.9672 88.7003 81.9466C88.9925 81.8642 89.1519 81.5966 89.0191 81.3701L84.2371 71.8576C84.1309 71.6311 83.7855 71.5076 83.4933 71.6106C83.201 71.6929 83.0416 71.9606 83.1745 72.1871L87.9564 81.6995C88.0361 81.8642 88.2486 81.9672 88.4877 81.9672Z" fill="black"/>
<path d="M84.0738 85.371C84.1319 85.371 84.19 85.371 84.248 85.3493C84.5674 85.2623 84.7706 85.0013 84.6545 84.7621L79.893 73.4111C79.7769 73.1719 79.4285 73.0197 79.1092 73.1066C78.7898 73.1936 78.5866 73.4546 78.7027 73.6938L83.4641 85.0448C83.5512 85.2405 83.8125 85.371 84.0738 85.371Z" fill="black"/>
<path d="M78.2557 87.1004C78.3089 87.1004 78.3354 87.1004 78.3886 87.0798C78.7074 87.0181 78.8933 86.7916 78.8136 86.5445L75.5194 75.6525C75.4397 75.4055 75.1475 75.2613 74.8287 75.3231C74.5099 75.3849 74.3239 75.6114 74.4036 75.8584L77.6978 86.7504C77.7775 86.9563 78.0166 87.1004 78.2557 87.1004Z" fill="black"/>
<path d="M71.4815 88.6036C71.5878 88.6036 71.6941 88.5796 71.8003 88.5315C72.1723 88.315 72.252 88.2669 71.6409 82.3983C71.3487 79.6324 71.0299 76.8665 71.0299 76.8424C71.0033 76.5538 70.7111 76.3614 70.3923 76.3854C70.0735 76.4095 69.861 76.6741 69.8876 76.9627C70.3392 80.7869 71.0033 87.0162 70.9502 87.9302C70.8439 88.1707 70.9502 88.4353 71.1893 88.5555C71.269 88.5796 71.3753 88.6036 71.4815 88.6036Z" fill="black"/>
<path d="M64.8671 88.7339C65.1859 88.7339 65.425 88.5374 65.425 88.2755L65.6641 76.4005C65.6641 76.1386 65.425 75.9203 65.1062 75.9203C64.7874 75.9203 64.5217 76.1168 64.5217 76.3787L64.2826 88.2537C64.3092 88.5156 64.5483 88.7339 64.8671 88.7339Z" fill="black"/>
<path d="M57.6383 87.1006C57.904 87.1006 58.1696 86.9358 58.1962 86.7299L60.6403 74.9114C60.6934 74.6644 60.4809 74.4379 60.1621 74.3967C59.8433 74.3555 59.5511 74.5202 59.498 74.7673L57.0538 86.5858C57.0007 86.8329 57.2133 87.0594 57.532 87.1006C57.5852 87.1006 57.6117 87.1006 57.6383 87.1006Z" fill="black"/>
<path d="M51.1165 85.4285C51.3849 85.4285 51.5995 85.2909 51.68 85.0614L55.3563 72.8316C55.4368 72.5562 55.249 72.3038 54.9538 72.235C54.6318 72.1661 54.3366 72.3268 54.2561 72.5792L50.5798 84.809C50.4993 85.0844 50.6872 85.3368 50.9824 85.4056C51.036 85.4285 51.0629 85.4285 51.1165 85.4285Z" fill="black"/>
<path d="M46.5817 81.9999C46.8182 81.9999 47.0547 81.8697 47.1073 81.6745L50.9701 71.6102C51.0752 71.3716 50.8913 71.1113 50.6022 71.0245C50.3132 70.9378 49.9978 71.0896 49.8927 71.3282L46.0299 81.3925C45.9248 81.6311 46.1087 81.8914 46.3978 81.9782C46.4503 81.9782 46.5292 81.9999 46.5817 81.9999Z" fill="black"/>
</svg>
