<svg width="134" height="127" viewBox="0 0 134 127" fill="none" xmlns="http://www.w3.org/2000/svg">
<path d="M66.9713 23.0969C80.8672 -11.5399 136.021 -5.52927 133.333 38.9333C130.726 82.0235 92.344 101.098 66.9713 126.239C41.5986 101.098 -0.223335 79.6906 0.609886 38.9333C1.52374 -5.61161 51.0865 -11.5399 66.9713 23.0969Z" fill="#09D87C"/>
<path d="M66.9719 126.815C67.1062 126.815 67.2675 126.76 67.375 126.651C73.4225 120.667 80.0614 115.151 87.1034 109.305C109.116 90.9709 131.909 72.0331 133.898 38.9881C134.516 28.9155 132.151 19.9955 127.098 13.2438C122.528 7.15078 116.024 2.97899 108.283 1.16755C100.22 -0.726221 91.6457 0.206943 84.1737 3.77492C76.406 7.48014 70.466 13.6555 66.945 21.6972C63.0477 13.7653 57.1614 7.64481 49.8775 3.96705C42.8086 0.371619 34.7722 -0.698775 27.1926 0.92054C14.3719 3.69259 0.502877 15.1376 0.0190815 38.9333C-0.276573 52.9307 4.42706 65.9127 14.3987 78.6202C23.1878 89.8182 34.9066 99.5066 46.2221 108.866C53.5329 114.904 60.4674 120.64 66.5418 126.678C66.6762 126.76 66.8375 126.815 66.9719 126.815ZM100.112 1.38712C102.827 1.38712 105.488 1.68903 108.041 2.29284C120.889 5.28445 134.113 16.4824 132.769 38.9058C130.78 71.4568 108.202 90.2298 86.3777 108.399C79.7926 113.888 72.9656 119.542 66.9987 125.416C60.9781 119.487 54.178 113.888 47.0016 107.933C24.1823 89.0771 0.61039 69.5904 1.22858 38.9333C1.71239 15.8237 15.0976 4.73553 27.4883 2.04583C40.739 -0.808559 57.9409 4.6532 66.488 23.3165C66.5956 23.5361 66.7837 23.6733 67.0256 23.6458C67.2675 23.6458 67.4557 23.5086 67.5363 23.289C73.5838 8.22118 87.3184 1.38712 100.112 1.38712Z" fill="black"/>
<path d="M17.9999 24.8807C17.5698 25.7315 17.086 26.6647 16.2528 27.1038C15.7421 27.3783 15.1239 27.4057 14.5326 27.3783C12.463 27.296 10.2053 26.1981 9.66772 24.1671C9.04953 21.944 10.6622 19.7757 12.1674 18.0466C15.0164 14.7531 22.6497 5.14702 27.7028 8.66011C31.6538 11.4047 26.6545 13.9023 24.6924 15.8235C22.0047 18.4309 19.72 21.5048 17.9999 24.8807Z" fill="white"/>
<path d="M12.3293 29.9307C13.1087 30.1503 13.9419 30.4796 14.3988 31.1932C14.6676 31.6324 14.7751 32.1539 14.8558 32.6479C14.9633 33.5262 15.017 34.4319 14.9633 35.3101C14.9364 35.8865 14.8826 36.4629 14.6139 36.9843C14.1301 37.9724 13.0281 38.4664 12.1142 39.0702C11.7917 39.2898 11.4423 39.5368 11.0929 39.6741C10.1253 40.0309 8.9964 39.5368 8.35133 38.7134C7.67938 37.9175 7.38373 36.8746 7.1687 35.8316C7.00744 35.0906 6.89992 34.3495 6.81929 33.581C6.73865 32.7028 6.6849 31.7696 7.06119 30.9737C8.05567 28.778 10.5284 29.4092 12.3293 29.9307Z" fill="white"/>
<path d="M69.1492 51.2378C67.2969 43.2276 72.1545 35.2007 79.9989 33.3093C87.8433 31.4178 95.704 36.3781 97.5563 44.3883C99.4086 52.3985 94.551 60.4254 86.7066 62.3168C78.8622 64.2083 71.0015 59.248 69.1492 51.2378Z" fill="white"/>
<path d="M83.3413 63.3053C91.7004 63.3053 98.5273 56.3614 98.5273 47.7983C98.5273 39.2351 91.7272 32.2913 83.3413 32.2913C74.9555 32.2913 68.1554 39.2351 68.1554 47.7983C68.1554 56.3614 74.9823 63.3053 83.3413 63.3053ZM83.3413 33.4989C91.0822 33.4989 97.3716 39.9213 97.3716 47.8257C97.3716 55.7302 91.0822 62.1525 83.3413 62.1525C75.6005 62.1525 69.3111 55.7302 69.3111 47.8257C69.3111 39.9213 75.6005 33.4989 83.3413 33.4989Z" fill="black"/>
<path d="M75.4527 49.7178C74.4225 45.2627 77.1242 40.7984 81.487 39.7465C85.8498 38.6945 90.2217 41.4533 91.2519 45.9083C92.2821 50.3633 89.5804 54.8276 85.2176 55.8796C80.8548 56.9316 76.4829 54.1728 75.4527 49.7178Z" fill="black"/>
<path d="M36.0014 50.1849C34.7102 42.0603 40.1134 34.405 48.0698 33.0865C56.0262 31.7679 63.523 37.2853 64.8143 45.4099C66.1056 53.5345 60.7024 61.1898 52.7459 62.5083C44.7895 63.8269 37.2927 58.3095 36.0014 50.1849Z" fill="white"/>
<path d="M50.3882 63.3055C58.7472 63.3055 65.5742 56.3617 65.5742 47.7985C65.5742 39.2353 58.7741 32.2915 50.3882 32.2915C42.0023 32.2915 35.2022 39.2353 35.2022 47.7985C35.2022 56.3617 42.0292 63.3055 50.3882 63.3055ZM50.3882 33.4991C58.129 33.4991 64.4185 39.9215 64.4185 47.8259C64.4185 55.7304 58.129 62.1528 50.3882 62.1528C42.6474 62.1528 36.358 55.7304 36.358 47.8259C36.358 39.9215 42.6743 33.4991 50.3882 33.4991Z" fill="black"/>
<path d="M46.7409 56.549C42.5991 54.7971 40.6323 49.9484 42.3479 45.719C44.0635 41.4897 48.8119 39.4813 52.9537 41.2332C57.0955 42.9851 59.0623 47.8338 57.3467 52.0632C55.6311 56.2926 50.8827 58.3009 46.7409 56.549Z" fill="black"/>
<path d="M94.897 25.8967C95.0045 25.8967 95.1389 25.8692 95.2464 25.7869C95.5152 25.5948 95.5689 25.238 95.3808 24.9635C92.908 21.4504 88.9032 19.0901 84.6834 18.7058C80.4636 18.2941 76.1094 19.8586 73.0453 22.8502C72.8034 23.0697 72.8034 23.454 73.0184 23.6736C73.2334 23.9206 73.6097 23.9206 73.8248 23.701C76.6469 20.929 80.6517 19.5018 84.549 19.8586C88.4463 20.2154 92.1286 22.3836 94.4132 25.6222C94.5207 25.8143 94.7089 25.8967 94.897 25.8967Z" fill="black"/>
<path d="M33.2128 31.0289C33.4816 31.0289 33.7235 30.8368 33.7772 30.5348C34.5567 26.0611 37.9702 22.2187 42.2706 20.9836C46.5711 19.7486 51.436 21.2306 54.3925 24.6614C54.6076 24.9084 54.957 24.9359 55.1989 24.7163C55.4408 24.4967 55.4677 24.1399 55.2526 23.8929C52.0273 20.1328 46.6786 18.5135 41.9481 19.8583C37.2176 21.2032 33.4816 25.4024 32.6215 30.3427C32.5677 30.6721 32.7827 30.974 33.0784 31.0289C33.159 31.0289 33.1859 31.0289 33.2128 31.0289Z" fill="black"/>
<path d="M76.2702 65.5286C78.1517 59.6551 83.5541 55.3735 89.9242 55.3735C96.3211 55.3735 101.724 59.6277 103.578 65.5286H76.2702Z" fill="#09D87C"/>
<path d="M76.271 66.1049C76.5129 66.1049 76.7548 65.9402 76.8086 65.6932C78.6632 59.8746 83.9312 55.9499 89.925 55.9499C95.9187 55.9499 101.187 59.8746 103.041 65.6932C103.149 65.9951 103.471 66.1598 103.767 66.0774C104.063 65.9676 104.224 65.6383 104.143 65.3364C102.128 59.0238 96.4294 54.7971 89.925 54.7971C83.4205 54.7971 77.7224 59.0238 75.7066 65.3364C75.5991 65.6383 75.7872 65.9676 76.0829 66.0774C76.1635 66.1049 76.2173 66.1049 76.271 66.1049Z" fill="black"/>
<path d="M32.6766 65.5287C34.6387 59.7924 39.9605 55.6755 46.2231 55.6755C52.5125 55.6755 57.8343 59.7924 59.7695 65.5287H32.6766Z" fill="#09D87C"/>
<path d="M32.676 66.1048C32.9179 66.1048 33.1329 65.9402 33.2135 65.7206C35.1487 60.0667 40.363 56.2517 46.2224 56.2517C52.0818 56.2517 57.323 60.0667 59.2313 65.7206C59.3388 66.0225 59.6614 66.1872 59.957 66.0774C60.2527 65.9676 60.4139 65.6382 60.3064 65.3363C58.21 59.1884 52.5387 55.0715 46.1955 55.0715C39.8524 55.0715 34.1811 59.1884 32.0847 65.3363C31.9772 65.6382 32.1384 65.9676 32.4341 66.0774C32.5685 66.1048 32.6222 66.1048 32.676 66.1048Z" fill="black"/>
<path d="M74.7937 40.6074L82.1582 47.2494H73.4767L74.7937 40.6074Z" fill="white"/>
<path d="M42.405 40.6074L49.7695 47.2494H41.088L42.405 40.6074Z" fill="white"/>
<path d="M48.049 83.1211C50.011 84.6306 52.43 85.6736 54.8222 86.4421C62.2673 88.8299 70.277 89.3239 77.8296 87.3478C81.1356 86.4695 84.4147 85.0972 87.0219 82.9839C90.4891 80.1844 92.6393 76.0949 90.6504 73.4601C89.3602 71.7584 86.995 71.1272 84.6835 71.4016C81.6463 71.7584 79.2004 73.762 76.5126 74.8324C72.5347 76.4243 68.0998 77.1928 63.88 76.3968C58.5582 75.3813 49.7423 66.7907 44.6623 73.4601C42.8078 75.9028 44.2054 79.855 47.4039 82.6271C47.6189 82.7917 47.8339 82.9564 48.049 83.1211Z" fill="white"/>
<path d="M68.1001 89.1593C71.4867 89.1593 74.7927 88.7477 77.9912 87.8968C81.781 86.9088 84.9526 85.3992 87.3984 83.4231C90.9732 80.5413 93.3922 76.0676 91.1345 73.076C89.8175 71.3194 87.3716 70.4686 84.63 70.798C82.5336 71.045 80.7596 72.0056 79.0126 72.9388C78.0987 73.4328 77.2117 73.8994 76.3248 74.2562C72.0243 75.9853 67.7776 76.5067 64.0147 75.7931C62.4827 75.4912 60.6012 74.5306 58.5854 73.4877C53.9086 71.045 48.0492 68.0259 44.2057 73.076C42.2436 75.6559 43.4531 79.9649 47.0548 83.0663C47.2698 83.2584 47.4848 83.4231 47.6998 83.5878C49.4469 84.9327 51.7315 86.0579 54.6612 86.9911C59.1229 88.4183 63.6653 89.1593 68.1001 89.1593ZM85.7051 71.9232C87.6135 71.9232 89.2799 72.6094 90.1937 73.817C91.9946 76.1774 89.7906 79.9924 86.6727 82.5174C84.3612 84.3837 81.324 85.8384 77.6955 86.7715C70.5191 88.6653 62.6708 88.336 54.9837 85.8933C52.1884 84.9875 50.0382 83.9446 48.3718 82.6821C48.1568 82.5174 47.9686 82.3527 47.7805 82.1881C44.6626 79.4983 43.5338 75.9029 45.1196 73.8445C48.3718 69.5629 53.2904 72.1154 58.0478 74.5855C60.1174 75.6559 62.0795 76.6714 63.7728 77.0008C67.7507 77.7692 72.2125 77.1929 76.7279 75.4089C77.6955 75.0246 78.6363 74.5032 79.5501 74.0366C81.1897 73.1583 82.883 72.2526 84.7644 72.033C85.087 71.9232 85.4095 71.9232 85.7051 71.9232Z" fill="black"/>
<path d="M88.4877 81.9673C88.5674 81.9673 88.6206 81.9673 88.7003 81.9467C88.9925 81.8644 89.1519 81.5967 89.0191 81.3702L84.2371 71.8578C84.1309 71.6313 83.7855 71.5077 83.4933 71.6107C83.201 71.693 83.0416 71.9607 83.1745 72.1872L87.9564 81.6996C88.0361 81.8644 88.2486 81.9673 88.4877 81.9673Z" fill="black"/>
<path d="M84.0738 85.3711C84.1319 85.3711 84.19 85.3711 84.248 85.3494C84.5674 85.2624 84.7706 85.0015 84.6545 84.7623L79.893 73.4112C79.7769 73.172 79.4285 73.0198 79.1092 73.1068C78.7898 73.1937 78.5866 73.4547 78.7027 73.6939L83.4641 85.0449C83.5512 85.2407 83.8125 85.3711 84.0738 85.3711Z" fill="black"/>
<path d="M78.2557 87.1007C78.3089 87.1007 78.3354 87.1007 78.3886 87.0801C78.7074 87.0183 78.8933 86.7918 78.8136 86.5448L75.5194 75.6528C75.4397 75.4057 75.1475 75.2616 74.8287 75.3233C74.5099 75.3851 74.3239 75.6116 74.4036 75.8587L77.6978 86.7506C77.7775 86.9565 78.0166 87.1007 78.2557 87.1007Z" fill="black"/>
<path d="M71.4815 88.6038C71.5878 88.6038 71.6941 88.5797 71.8003 88.5316C72.1723 88.3151 72.252 88.267 71.6409 82.3985C71.3487 79.6325 71.0299 76.8666 71.0299 76.8426C71.0033 76.5539 70.7111 76.3615 70.3923 76.3856C70.0735 76.4096 69.861 76.6742 69.8876 76.9628C70.3392 80.787 71.0033 87.0164 70.9502 87.9303C70.8439 88.1708 70.9502 88.4354 71.1893 88.5557C71.269 88.5797 71.3753 88.6038 71.4815 88.6038Z" fill="black"/>
<path d="M64.8671 88.734C65.1859 88.734 65.425 88.5376 65.425 88.2756L65.6641 76.4007C65.6641 76.1387 65.425 75.9204 65.1062 75.9204C64.7874 75.9204 64.5217 76.1169 64.5217 76.3788L64.2826 88.2538C64.3092 88.5157 64.5483 88.734 64.8671 88.734Z" fill="black"/>
<path d="M57.6403 87.1006C57.9059 87.1006 58.1716 86.9358 58.1982 86.7299L60.6423 74.9114C60.6954 74.6644 60.4829 74.4379 60.1641 74.3967C59.8453 74.3555 59.553 74.5202 59.4999 74.7673L57.0558 86.5858C57.0027 86.8329 57.2152 87.0594 57.534 87.1006C57.5871 87.1006 57.6137 87.1006 57.6403 87.1006Z" fill="black"/>
<path d="M51.1165 85.4288C51.3849 85.4288 51.5995 85.2911 51.68 85.0617L55.3563 72.8318C55.4368 72.5565 55.249 72.3041 54.9538 72.2352C54.6318 72.1664 54.3366 72.327 54.2561 72.5794L50.5798 84.8093C50.4993 85.0846 50.6872 85.337 50.9824 85.4058C51.036 85.4288 51.0629 85.4288 51.1165 85.4288Z" fill="black"/>
<path d="M46.5798 82C46.8163 82 47.0528 81.8699 47.1053 81.6746L50.9682 71.6103C51.0733 71.3717 50.8893 71.1114 50.6003 71.0247C50.3112 70.9379 49.9959 71.0897 49.8908 71.3283L46.0279 81.3927C45.9228 81.6313 46.1068 81.8915 46.3958 81.9783C46.4484 81.9783 46.5272 82 46.5798 82Z" fill="black"/>
</svg>
