<svg width="152" height="237" viewBox="0 0 152 237" fill="none" xmlns="http://www.w3.org/2000/svg">
<path d="M50.75 224.368C40.6612 221.852 34.5131 211.583 37.0529 201.396L51.5109 143.408C54.0434 133.251 64.2714 127.033 74.3893 129.555C84.4781 132.071 90.6262 142.341 88.0864 152.527L73.6284 210.515C71.0885 220.702 60.8388 226.883 50.75 224.368Z" fill="#00FE5D"/>
<path d="M50.5897 225.011C40.152 222.409 33.8225 211.752 36.4353 201.273L50.9006 143.255C53.5207 132.747 64.1342 126.345 74.5428 128.94C84.9805 131.543 91.31 142.2 88.6972 152.679L74.2392 210.667C71.6191 221.176 60.9983 227.606 50.5897 225.011ZM74.229 130.199C64.4891 127.771 54.5958 133.761 52.1508 143.567L37.6928 201.555C35.2479 211.361 41.1709 221.295 50.9108 223.723C60.6507 226.152 70.5441 220.161 72.989 210.355L87.447 152.367C89.8847 142.591 83.9689 132.628 74.229 130.199Z" fill="black"/>
<path d="M133.19 85.7013C132.741 83.786 132.175 82.3391 131.355 81.1707C130.309 79.6664 128.834 78.6457 127.33 78.3638C125.709 78.053 124.189 78.327 122.727 79.2372C122.618 79.3032 122.494 79.3035 122.385 79.2452C122.276 79.187 122.211 79.0774 122.24 78.9603C122.454 75.376 121.003 72.1538 118.141 69.8856C114.508 66.99 109.405 66.4017 105.165 68.4225C105.092 68.4665 104.99 68.5033 104.917 68.5474L104.743 68.6282C104.634 68.6943 104.459 68.6508 104.358 68.5632C104.256 68.4757 104.234 68.3148 104.3 68.1757C105.218 66.3525 106.164 64.5365 107.177 62.5815C109.58 58.0195 115.372 46.1873 117.614 35.3357C118.505 31.0185 118.589 27.0907 117.88 23.6182C116.519 17.0606 111.012 13.2623 104.162 14.1041C94.1574 15.3405 89.1864 28.4655 86.7739 34.7975C84.8133 39.9362 82.5955 47.8402 81.1364 53.073L80.1807 56.5346C79.8232 57.8446 79.4657 59.1546 79.0864 60.428C78.926 60.9477 78.6709 61.5992 78.4231 62.2214L78.343 62.4191C78.2774 62.5582 78.1319 62.6463 77.9865 62.6101C77.8412 62.5738 77.7177 62.4497 77.7178 62.3254C77.4524 58.5593 77.0998 54.7715 76.7471 51.108L76.7399 51.0129C76.488 48.3073 76.2001 45.2508 75.9631 42.2379C75.8626 40.907 75.7622 39.4518 75.6691 37.9673C75.2539 31.2101 74.7887 23.5388 72.2203 17.986C71.4005 16.1959 70.0506 13.6829 67.7401 12.1741C66.8391 11.5763 65.7708 11.1545 64.4915 10.8356C63.9973 10.7123 63.4957 10.6184 62.936 10.5099C58.1892 9.73059 54.0442 10.7492 51.5262 13.2927C49.4958 15.3671 48.6789 18.1482 48.153 20.6288C46.6631 27.7194 47.4525 38.5495 48.9066 46.0943C49.7167 50.4004 50.7741 54.7059 51.8025 58.8799C52.3601 61.1021 52.8815 63.3463 53.4028 65.5905C53.4099 65.6856 53.4171 65.7806 53.3735 65.8319C53.3225 65.9125 53.2497 65.9565 53.1843 65.9713C48.6394 66.9835 44.8646 68.4986 42.5947 70.1712C39.0084 72.2929 37.5783 77.6572 36.804 81.5061C35.4962 88.1135 35.7944 95.5877 37.7423 103.753C38.7489 107.89 40.1262 112.151 42.1857 117.64C43.114 120.11 43.9771 122.221 44.8259 124.143C45.1378 124.874 45.4134 125.627 45.6236 126.27C45.6816 126.408 45.6161 126.548 45.4996 126.643C34.6591 134.822 35.451 142.917 38.0123 148.25C42.0394 156.623 53.1048 164.139 66.2464 167.416C74.0965 169.373 81.7302 169.473 87.7517 167.741C98.3329 164.689 103.489 156.025 102.287 143.382C102.287 143.258 102.345 143.148 102.454 143.082C103.036 142.73 103.589 142.37 104.113 142.003C111.628 136.757 116.086 128.292 117.005 117.546C116.997 117.451 117.048 117.37 117.128 117.297C122.381 113.445 126.843 108.433 130.025 102.852C133.448 96.9276 134.471 91.3375 133.19 85.7013Z" fill="white"/>
<path d="M55.7001 139.602C55.6419 139.588 55.5547 139.566 55.5039 139.522C53.6293 138.247 51.8714 136.751 50.2808 135.08C49.2785 134.021 48.5015 133.05 47.8698 132.116C47.5795 131.67 47.2746 131.159 46.9988 130.655C46.3747 129.442 45.9179 128.178 45.5192 126.928C45.2147 126.044 44.9175 125.13 44.5403 124.29C43.6915 122.368 42.8356 120.227 41.9001 117.786C39.8115 112.291 38.4415 108.001 37.464 103.871C35.4943 95.6687 35.1744 88.158 36.4967 81.4921C37.2856 77.5846 38.7303 72.1618 42.3966 69.9667C45.918 67.3624 52.1214 65.3958 59.3561 64.619C66.8163 63.8051 74.3259 64.4027 79.9514 66.2406C85.8603 68.1802 89.7031 71.4702 91.015 75.7459C91.0294 75.8117 91.0439 75.8775 91.0511 75.9726C90.5945 89.6946 71.8035 94.337 59.2625 94.1017C58.8917 94.1025 58.6303 93.7886 58.6233 93.4448C58.6237 93.0718 58.9365 92.8078 59.2783 92.7997C65.9159 92.9312 73.1584 91.6278 78.5843 89.3118C83.5228 87.2163 89.4301 83.217 89.7351 76.0487C88.5246 72.2335 85.0013 69.2719 79.5503 67.4775C67.3909 63.482 49.6779 66.1546 43.1154 71.0476C43.1081 71.0769 43.079 71.0696 43.0426 71.0917C39.4563 73.2134 38.1633 79.6379 37.7251 81.7672C36.4248 88.221 36.7522 95.5781 38.6784 103.583C39.6415 107.647 41.0188 111.908 43.0638 117.33C43.9993 119.771 44.8334 121.876 45.6895 123.768C46.0812 124.674 46.4002 125.624 46.7047 126.508C47.1107 127.729 47.5239 128.92 48.1118 130.031C48.3658 130.498 48.6198 130.966 48.9175 131.382C49.4982 132.273 50.2535 133.207 51.1831 134.185C52.7011 135.776 54.3792 137.221 56.2028 138.453C56.4935 138.65 56.5803 139.044 56.3764 139.367C56.2308 139.579 55.9617 139.668 55.7001 139.602Z" fill="black"/>
<path d="M82.4005 114.514C82.0807 114.435 81.8774 114.135 81.9287 113.806C82.9258 105.1 78.986 96.7492 71.9451 92.5375C71.6471 92.37 71.5312 91.9679 71.7351 91.6457C71.9026 91.3454 72.3026 91.2275 72.6223 91.4316C80.1209 95.9129 84.2784 104.754 83.2444 113.979C83.215 114.344 82.873 114.601 82.5459 114.551C82.4587 114.529 82.4296 114.522 82.4005 114.514Z" fill="black"/>
<path d="M53.7357 66.7313C53.5031 66.6733 53.3288 66.5054 53.2709 66.2423C52.7061 63.8007 52.1196 61.3225 51.5112 58.9322C50.4828 54.7583 49.4255 50.4527 48.6153 46.1466C47.1758 38.5433 46.3647 27.6767 47.8619 20.5568C48.395 18.047 49.2048 15.1708 51.3079 13.0524C53.8769 10.4282 58.1528 9.38012 62.9868 10.1812C65.0658 10.513 66.6284 11.058 67.9072 11.8743C69.7164 13.0405 71.1905 14.9316 72.5109 17.8103C75.0937 23.429 75.5807 31.1368 75.9887 37.9232C76.0744 39.437 76.1821 40.8629 76.2826 42.1939C76.5125 45.1116 76.7932 48.0731 77.0594 50.9689C77.4049 54.6616 77.7793 58.486 78.0374 62.2813C78.052 62.2228 78.1029 62.1422 78.1175 62.0837C78.3726 61.4322 78.6204 60.8099 78.7735 60.3196C79.1893 58.8997 79.5833 57.4434 79.97 56.0163C80.2399 55.0576 80.5098 54.0988 80.7725 53.1694L80.7944 53.0816C82.2607 47.8196 84.4858 39.8863 86.461 34.689C88.8808 28.3278 93.8882 15.0564 104.111 13.8122C111.121 12.9481 116.781 16.8777 118.17 23.5668C118.901 27.0759 118.803 31.0622 117.904 35.4087C115.655 46.2895 109.827 58.1438 107.416 62.735C106.003 65.4297 104.75 67.8534 103.541 70.3502C103.395 70.6869 102.995 70.8049 102.69 70.6666C102.356 70.521 102.24 70.119 102.378 69.8115C103.595 67.2855 104.848 64.8618 106.261 62.1671C108.628 57.6272 114.39 45.912 116.603 35.1776C117.458 31.0067 117.541 27.2033 116.861 23.8623C115.602 17.7653 110.625 14.3169 104.219 15.1138C94.7886 16.2758 89.9416 29.0275 87.6383 35.1691C85.6777 40.3078 83.489 48.2191 82.0009 53.4446L81.979 53.5324C81.7091 54.4911 81.4391 55.4498 81.1765 56.3793C80.7898 57.8064 80.3668 59.2555 79.9801 60.6826C79.8123 61.2315 79.5572 61.883 79.2949 62.5638C78.792 63.8375 78.2163 65.2796 78.2663 66.1938C78.3023 66.5448 78.0112 66.8453 77.6622 66.8826C77.3132 66.92 77.0154 66.6281 76.9794 66.2771C76.7007 61.2018 76.2185 56.0759 75.7506 51.14C75.4771 48.2735 75.2037 45.2827 74.9738 42.365C74.8515 40.9976 74.7729 39.5788 74.6871 38.065C74.2791 31.403 73.792 23.8195 71.3107 18.4127C70.0846 15.7751 68.7848 14.0519 67.1936 13.0023C66.0747 12.288 64.6575 11.7792 62.7529 11.4909C58.326 10.7913 54.4573 11.6923 52.1868 13.9866C50.3674 15.8338 49.616 18.4758 49.1267 20.81C47.666 27.7835 48.47 38.4308 49.8806 45.9025C50.698 50.1793 51.7554 54.4848 52.762 58.6223C53.3413 61.0053 53.9569 63.4907 54.5144 65.9615C54.5795 66.3198 54.3683 66.6713 54.0411 66.7452C53.9465 66.7527 53.852 66.7602 53.7357 66.7313Z" fill="black"/>
<path d="M92.1606 109.424C90.4452 108.996 89.0722 107.814 88.049 105.849C86.496 102.913 86.3107 98.9488 87.4499 93.7607C88.9467 87.0139 92.4428 80.4236 97.807 74.1436C99.8086 71.8133 102.057 69.4824 104.967 68.0936C109.338 66.0432 114.565 66.6313 118.299 69.6144C121.75 72.3713 123.178 76.4274 122.273 80.8031C121.191 86.3788 117.377 90.7756 113.229 95.1513C112.938 95.4518 112.552 95.8842 112.123 96.3679C107.96 100.926 99.27 110.388 92.8075 109.554C92.604 109.503 92.3932 109.482 92.1606 109.424ZM113.262 68.5139C110.732 67.8832 107.991 68.1014 105.569 69.2698C102.871 70.5557 100.746 72.762 98.8313 74.9897C93.5981 81.1158 90.2113 87.5158 88.7655 94.0576C87.6776 98.9165 87.8486 102.566 89.2492 105.247C90.2144 107.073 91.4494 108.065 93.0341 108.274C98.806 109.029 107.503 99.5378 111.229 95.4922C111.688 95.0158 112.045 94.5762 112.365 94.2829L112.837 94.7426L112.365 94.2829C116.382 90.0611 120.065 85.8181 121.095 80.5717C121.913 76.6716 120.622 73.054 117.578 70.6472C116.263 69.6043 114.803 68.8981 113.262 68.5139Z" fill="black"/>
<path d="M104.291 121.589C102.344 121.104 100.803 119.973 99.6781 118.169C97.5149 114.707 97.7452 109.572 100.235 105.654C100.432 105.361 100.825 105.272 101.115 105.469C101.406 105.666 101.493 106.061 101.296 106.354C99.3885 109.298 98.5988 114.076 100.748 117.472C101.742 119.057 103.137 120.027 104.867 120.396C108.363 121.112 112.655 119.259 115.528 117.271C121.123 113.411 125.868 108.252 129.218 102.371C132.459 96.681 133.46 91.303 132.236 85.93C131.816 84.1463 131.287 82.8017 130.532 81.7429C129.646 80.4649 128.382 79.5901 127.117 79.3369C125.38 78.997 123.751 79.4615 122.288 80.7447C122.012 80.9866 121.619 80.9509 121.38 80.6735C121.14 80.3962 121.177 80.0011 121.453 79.7591C123.221 78.2412 125.279 77.6661 127.373 78.0637C128.965 78.3673 130.52 79.439 131.609 81.0164C132.451 82.2213 133.067 83.712 133.509 85.6565C134.805 91.3585 133.789 97.0437 130.352 103.027C126.9 109.069 122.023 114.382 116.276 118.359C113.184 120.48 108.515 122.487 104.633 121.706C104.524 121.647 104.408 121.618 104.291 121.589Z" fill="black"/>
<path d="M69.2452 146.213C68.4602 146.017 67.6752 145.822 66.8684 145.589C66.5195 145.502 66.3309 145.145 66.4184 144.793C66.506 144.442 66.8624 144.251 67.2113 144.338C81.7989 148.504 94.712 147.37 103.573 141.185C110.907 136.049 115.233 127.738 116.079 117.16C116.109 116.794 116.422 116.53 116.785 116.559C117.149 116.587 117.41 116.901 117.381 117.267C116.498 128.24 111.989 136.91 104.328 142.244C95.649 148.319 83.259 149.707 69.2452 146.213Z" fill="black"/>
<path d="M65.9486 167.745C63.5354 167.144 61.1297 166.389 58.7677 165.458C48.6076 161.494 40.6454 155.156 37.4528 148.515C35.6388 144.767 35.3444 140.994 36.5402 137.312C37.8454 133.316 40.9171 129.542 45.7043 126.072C46.0026 125.867 46.3879 125.931 46.5984 126.202C46.8017 126.501 46.7359 126.889 46.4376 127.094C37.7727 133.36 35.0831 140.555 38.5949 147.898C41.6423 154.254 49.3575 160.344 59.2342 164.206C69.1399 168.075 79.7027 169.061 87.426 166.82C94.6837 164.712 102.992 158.886 101.32 143.048C101.284 142.697 101.546 142.389 101.903 142.322C102.252 142.285 102.557 142.548 102.622 142.906C103.342 149.801 102.254 155.531 99.4068 159.889C96.8512 163.822 92.9225 166.574 87.7665 168.055C81.665 169.861 73.8568 169.717 65.9486 167.745Z" fill="black"/>
<path d="M68.5655 188.95C68.2152 190.355 67.8794 191.826 68.1033 193.281C68.3346 194.706 69.2711 196.153 70.674 196.471C71.1101 196.58 71.5754 196.572 71.99 196.395C72.9573 195.983 73.3365 194.834 73.621 193.817C75.1676 188.233 76.7216 182.62 77.1125 176.841C77.1935 175.773 77.2309 174.632 76.8029 173.623C76.404 172.622 75.4451 171.761 74.3836 171.808C71.5699 171.946 69.2151 186.345 68.5655 188.95Z" fill="white"/>
<path d="M64.2807 206.257C63.8722 207.648 63.7108 209.162 64.2476 210.477C64.777 211.822 66.1501 212.879 67.568 212.642C68.6297 212.472 69.5247 211.606 69.9837 210.633C70.4717 209.666 70.6255 208.554 70.7719 207.471C71.0575 205.335 71.2271 202.797 69.6072 201.367C66.3528 198.566 64.8788 204.23 64.2807 206.257Z" fill="white"/>
</svg>
