<svg width="122" height="231" viewBox="0 0 122 231" fill="none" xmlns="http://www.w3.org/2000/svg">
<path d="M53.2377 224.531C43.7801 223.37 37.0409 214.698 38.208 205.193L45.8548 142.915C47.0219 133.409 55.6588 126.626 65.1163 127.787C74.5738 128.948 81.3131 137.62 80.146 147.125L72.4992 209.403C71.3283 218.939 62.7257 225.696 53.2377 224.531Z" fill="#FF00FF"/>
<path d="M53.1564 225.174C43.3632 223.972 36.3833 214.991 37.5918 205.148L45.2424 142.84C46.4509 132.997 55.3962 125.971 65.1894 127.174C74.9825 128.376 81.9624 137.357 80.7539 147.2L73.1071 209.478C71.9253 219.355 62.9495 226.377 53.1564 225.174ZM65.035 128.431C55.913 127.311 47.5847 133.852 46.4589 143.02L38.8122 205.298C37.6864 214.466 44.185 222.828 53.307 223.948C62.4289 225.068 70.7573 218.527 71.883 209.359L79.5335 147.05C80.6555 137.912 74.1569 129.551 65.035 128.431Z" fill="black"/>
<path d="M86.2828 11.3611C84.9486 9.11183 81.5523 7.26303 77.4601 6.54268C74.943 6.10912 72.6824 6.36069 70.8919 7.32363C68.0765 8.81437 66.4722 11.7922 66.0596 16.1614C66.0445 16.2841 65.9684 16.3993 65.8389 16.4456C65.7131 16.4613 65.591 16.4463 65.5146 16.3124C63.5962 13.5245 61.8044 11.2191 57.8093 9.20339C53.4669 6.98941 47.1043 7.60885 44.6405 12.0375C43.6481 13.8143 43.3123 16.0452 43.5915 19.0676C44.5912 29.3374 49.6183 37.8295 54.0223 45.3424C56.1479 48.965 58.174 52.3886 59.399 55.5271C59.4449 55.6573 59.3956 55.8068 59.2928 55.8876C59.1594 55.9646 59.0069 55.9459 58.8961 55.8389C57.0136 54.0203 54.6625 52.4866 51.0949 50.7724C48.8132 49.683 46.1081 48.5104 43.1488 48.1471L43.0267 48.1321C36.4905 47.3918 29.5453 50.99 25.3649 57.2933C21.5686 62.9901 19.0214 72.6376 21.2943 77.8346C21.3441 77.9341 21.329 78.0567 21.2567 78.1412L21.1806 78.2564C21.1083 78.3409 21.0627 78.4598 20.9904 78.5443C14.4502 89.9426 13.3665 104.065 18.0257 116.309C21.5172 125.453 28.1103 133.297 36.617 138.419C36.7048 138.461 36.785 138.565 36.77 138.687C36.7549 138.81 36.7131 138.898 36.614 138.948C34.6789 140.08 33.2398 141.46 32.3348 143.029C29.8556 147.332 31.9759 152.51 35.0118 155.528C37.7727 158.264 41.3859 159.859 44.2586 160.928C54.792 164.929 66.4114 166.138 77.5803 164.459C81.3655 163.897 86.2061 162.81 89.8692 159.712C94.4994 155.798 95.3707 149.711 92.0989 144.578C91.0593 142.956 89.932 141.293 88.4468 140.021C88.3628 139.948 88.3399 139.883 88.3511 139.791C88.3624 139.699 88.4042 139.611 88.4728 139.557C95.3463 134.02 100.805 125.633 105.156 113.904C115.931 84.9102 115.14 52.0064 102.96 23.5869C100.997 19.1439 98.691 14.721 94.5542 12.3456C92.2416 11.0033 89.2138 10.6938 86.6071 11.4943C86.508 11.5444 86.3592 11.495 86.2828 11.3611ZM51.1906 92.6173C50.0439 95.6514 48.4421 97.8514 46.4309 99.0985C45.1549 99.9067 43.4589 100.352 41.8419 100.154C40.8047 100.026 39.828 99.6573 39.0186 98.9354C37.1172 97.2702 36.7506 94.4549 36.5249 91.5014C36.2682 88.295 35.8816 84.886 34.6951 81.939C34.6491 81.8088 34.6642 81.6862 34.7708 81.5747C38.8259 78.0574 42.6363 76.5332 45.8743 77.1487C48.2314 77.6248 50.1403 79.2288 51.4025 81.8116C53.2731 85.7452 52.0677 90.2661 51.1906 92.6173Z" fill="white"/>
<path d="M45.3143 142.756C45.2838 142.752 45.2227 142.745 45.1922 142.741C32.6913 138.623 22.4081 128.8 17.6992 116.457C12.9902 104.113 14.1195 89.8713 20.6978 78.4154C21.9184 76.2931 23.7198 74.9891 25.7631 74.742C27.9626 74.4829 30.2632 75.419 32.1307 77.3602C33.0625 78.3462 33.8268 79.436 34.3929 80.6261C38.5739 77.0931 42.5711 75.5607 45.9847 76.26C48.6468 76.7736 50.7772 78.5915 52.1618 81.4383C53.6957 84.5836 53.6258 88.6836 52.0158 92.9681C50.7817 96.2093 49.0696 98.5514 46.8908 99.9024C44.5101 101.384 40.8085 101.77 38.3459 99.6313C35.9978 97.5689 35.7103 94.1097 35.5271 91.566C35.1386 86.9117 34.486 81.6335 31.217 78.2441C29.594 76.5819 27.7092 75.7902 25.887 76.0022C24.2211 76.2023 22.7549 77.2984 21.7663 79.0446C15.382 90.1819 14.3054 103.994 18.869 116.009C23.4363 127.993 33.4103 137.559 45.5869 141.544C45.915 141.647 46.0871 142.01 45.9847 142.34C45.9203 142.612 45.6193 142.793 45.3143 142.756ZM34.9591 81.8161C36.1649 84.8589 36.5515 88.2679 36.8119 91.4436C37.0451 94.3359 37.3925 97.0553 39.2099 98.648C41.1953 100.386 44.2411 100.044 46.2524 98.7968C48.1988 97.5729 49.7282 95.4574 50.8674 92.4847C51.737 90.1948 52.9311 85.7659 51.076 81.9586C49.8635 79.4753 48.0423 77.9133 45.7768 77.4483C42.6913 76.8516 38.9457 78.3526 34.9591 81.8161Z" fill="black"/>
<path d="M74.3916 146.046C74.117 146.012 73.8955 145.798 73.8379 145.511C73.7878 145.162 74.0122 144.847 74.3591 144.796C78.9142 144.017 82.8884 142.42 86.1828 140.054C93.6857 134.688 99.582 126.012 104.207 113.569C114.891 84.8135 114.104 52.1281 102.016 23.9689C100.187 19.698 97.957 15.409 94.0492 13.1861C91.9083 11.9583 89.0025 11.6638 86.6399 12.4942C85.3785 12.9308 83.7176 13.8474 82.8894 15.8C82.1904 17.4572 82.2964 19.3689 82.498 21.5102C82.9788 26.6739 84.5967 32.4129 86.3258 38.508C89.324 49.1477 92.4028 60.1397 90.4824 70.7357C90.4105 71.0692 90.102 71.3115 89.7397 71.2359C89.4079 71.164 89.1672 70.8543 89.2429 70.4901C91.1294 60.1701 88.0623 49.3352 85.11 38.8256C83.3847 32.6999 81.7438 26.8958 81.2475 21.6057C81.0342 19.3073 80.9204 17.2079 81.7143 15.2822C82.5006 13.4178 84.0693 11.9919 86.2033 11.2579C88.9203 10.3153 92.1655 10.6204 94.6499 12.0771C98.8439 14.4907 101.203 18.9824 103.132 23.4524C115.335 51.9369 116.146 84.9364 105.328 114.018C100.613 126.699 94.5678 135.574 86.8593 141.102C83.3973 143.572 79.2287 145.239 74.5136 146.06C74.5136 146.06 74.4526 146.053 74.3916 146.046Z" fill="black"/>
<path d="M21.5933 78.6498C21.3797 78.6236 21.208 78.5091 21.1085 78.3102C18.5648 73.0488 21.0849 63.1178 25.0751 57.1025C29.3316 50.684 36.3758 47.0357 43.0646 47.7947C46.0887 48.1349 48.8816 49.3494 51.2206 50.477C57.9743 53.734 62.0934 57.01 64.5385 65.0917C64.6534 65.4171 64.4557 65.7663 64.1318 65.8821C63.8079 65.998 63.4606 65.7997 63.3457 65.4744C61.0042 57.81 57.2553 54.7974 50.6771 51.6241C48.4259 50.5384 45.7475 49.4003 42.9103 49.0519C36.8011 48.3641 30.0541 51.8621 26.1361 57.793C22.4159 63.3747 19.9411 72.9377 22.2629 77.736C22.4121 78.0345 22.3021 78.4256 21.9745 78.5721C21.8411 78.6491 21.7153 78.6648 21.5933 78.6498Z" fill="black"/>
<path d="M60.3529 58.3525C60.1089 58.3226 59.8836 58.1393 59.8222 57.8827C58.8518 54.1841 56.4664 50.1561 53.7253 45.4931C49.264 37.942 44.2408 29.4192 43.2486 19.0881C42.9464 16.0007 43.2898 13.7084 44.3202 11.874C46.8943 7.30326 53.417 6.64123 57.9044 8.93526C62.4223 11.233 64.1535 13.78 66.7751 17.6503C66.9585 17.9218 66.9096 18.3204 66.6049 18.532C66.3345 18.7167 65.9379 18.668 65.7277 18.3621C63.1328 14.5262 61.5621 12.1857 57.3342 10.048C53.3696 8.03607 47.6092 8.5427 45.3887 12.5032C44.48 14.1035 44.1972 16.1542 44.4723 18.9582C45.4373 29.0059 50.4109 37.4291 54.7957 44.8463C57.5902 49.5782 59.9987 53.6713 61.0418 57.5345C61.1262 57.8561 60.9284 58.2053 60.6045 58.3212C60.5092 58.3406 60.4445 58.3638 60.3529 58.3525Z" fill="black"/>
<path d="M76.1574 66.5804C75.8829 66.5467 75.6309 66.329 75.6075 66.0149C74.6655 56.0323 72.3657 48.2797 70.1884 40.7912C68.4137 34.815 66.754 29.1642 65.9435 22.9017C64.9014 14.7433 66.5666 9.25171 70.7382 7.05597C72.5935 6.06986 74.9189 5.79512 77.497 6.23618C82.0469 7.01271 85.6839 9.1712 86.8278 11.7084C86.9732 12.0375 86.8365 12.3942 86.5089 12.5407C86.1812 12.6872 85.8264 12.5503 85.681 12.2212C84.8775 10.4417 81.9803 8.31182 77.2817 7.48589C75.676 7.19537 73.3348 7.09466 71.3157 8.15402C66.645 10.6309 66.4917 17.4286 67.171 22.7412C67.9622 28.9079 69.6258 34.528 71.3431 40.4661C73.574 48.0234 75.87 55.8067 76.8275 65.9157C76.8471 66.2604 76.5921 66.5715 76.249 66.5916C76.2185 66.5879 76.188 66.5841 76.1574 66.5804Z" fill="black"/>
<path d="M59.5119 165.073C54.2645 164.429 49.0924 163.171 44.0909 161.281C41.1914 160.178 37.5172 158.575 34.7296 155.805C31.6097 152.714 29.4509 147.344 32.0062 142.927C33.0329 141.123 34.7043 139.617 36.9254 138.426C37.2263 138.245 37.6116 138.386 37.7608 138.684C37.9404 138.987 37.8 139.374 37.5028 139.524C35.4799 140.614 34.0141 141.96 33.0748 143.556C30.8351 147.421 32.8251 152.147 35.6128 154.917C38.2324 157.542 41.7616 159.065 44.5123 160.119C54.9579 164.078 66.3295 165.288 77.3764 163.594C81.0358 163.047 85.7163 162.003 89.208 159.039C93.5298 155.368 94.322 149.925 91.2567 145.128C90.1101 143.369 88.9405 141.545 87.2343 140.308C86.948 140.117 86.8749 139.704 87.0956 139.42C87.2858 139.132 87.6937 139.088 87.98 139.279C89.858 140.63 91.1575 142.657 92.3003 144.447C95.679 149.718 94.7889 155.958 90.0178 160.01C86.2824 163.193 81.3808 164.272 77.5651 164.831C71.6033 165.717 65.4915 165.807 59.5119 165.073Z" fill="black"/>
<path d="M99.0727 77.1759C98.9811 77.1646 98.8629 77.119 98.7789 77.0464C84.6438 66.5645 69.8454 63.5024 54.8145 67.882C54.4944 67.9672 54.1434 67.7996 54.0322 67.4436C53.9478 67.122 54.1151 66.769 54.4695 66.6569C62.4041 64.3318 70.3953 64.068 78.26 65.8429C85.5221 67.4816 92.6879 70.9138 99.5589 75.9905C99.8413 76.212 99.8877 76.5912 99.6975 76.8791C99.5148 77.1057 99.2862 77.2021 99.0727 77.1759Z" fill="black"/>
<path d="M55.6803 126.442C55.3752 126.405 55.127 126.156 55.1379 125.815C54.8747 111.061 65.8524 96.8144 80.145 93.4024C80.4957 93.3209 80.8125 93.5155 80.8931 93.8677C80.9737 94.22 80.7797 94.5386 80.4291 94.62C66.6777 97.9117 56.1376 111.62 56.4113 125.785C56.4309 126.13 56.1454 126.437 55.8061 126.427C55.7413 126.45 55.7108 126.446 55.6803 126.442Z" fill="black"/>
<path d="M66.1564 183.35C65.9983 184.638 65.8632 185.991 66.296 187.258C66.7288 188.525 67.9164 189.698 69.4418 189.885C69.8994 189.941 70.3989 189.909 70.7951 189.709C71.7476 189.266 71.9709 188.204 72.1181 187.257C72.9032 182.124 73.692 176.961 73.2454 171.77C73.1791 170.797 73.025 169.782 72.448 168.933C71.8709 168.084 70.7794 167.39 69.6472 167.531C66.7881 167.865 66.4501 180.958 66.1564 183.35Z" fill="white"/>
<path d="M63.71 200.013C63.4645 201.508 63.4861 203.098 64.2202 204.434C64.9543 205.769 66.5152 206.676 67.9596 206.262C69.0496 205.96 69.8563 204.939 70.2359 203.865C70.6155 202.791 70.6365 201.611 70.6538 200.461C70.6846 198.193 70.5165 195.527 68.6272 194.267C64.8829 191.722 64.0421 197.813 63.71 200.013Z" fill="white"/>
</svg>
